<svg width="16" height="17" viewBox="0 0 16 17" fill="none" xmlns="http://www.w3.org/2000/svg">
<path d="M1.24 1.49995V5.92101M1.24 5.92101H5.66106M1.24 5.92101L3.18551 4.17518C4.2031 3.15939 5.52327 2.50179 6.94712 2.30148C8.37096 2.10117 9.82135 2.36899 11.0797 3.06459C12.3381 3.76019 13.3363 4.84589 13.924 6.1581C14.5116 7.47031 14.6569 8.93794 14.3378 10.3399C14.0188 11.7418 13.2527 13.0021 12.1551 13.9308C11.0574 14.8595 9.68768 15.4064 8.25218 15.489C6.81669 15.5716 5.39323 15.1855 4.19627 14.3888C2.99932 13.5922 2.09372 12.4281 1.61592 11.072" stroke="#617199" stroke-width="2" stroke-linecap="round" stroke-linejoin="round"/>
</svg>
